<svg width="320" height="240" xmlns="http://www.w3.org/2000/svg" xmlns:svg="http://www.w3.org/2000/svg">
	<!-- Created with SVG-edit - http://svg-edit.googlecode.com/ -->
	<g>
		<title>Layer 1</title>
		<path fill="#ffd4aa" stroke="#ff0000" stroke-width="4" stroke-dasharray="null" stroke-linejoin="null" stroke-linecap="null" d="m75,222c0,0 -43,-21 -43,-21c0,0 -16,-45 -16,-45c0,0 -5,-71 -5,-71c0,0 14,-38 14,-38c0,0 27,-29 27,-29c0,0 67,-6 67,-6c0,0 51,1 51,1c0,0 33,11 33,11c0,0 20,11 20,11c0,0 10,26 10,26c0,0 7,51 7,51c0,0 37,-51 37,-51c0,0 27,-38 27,-38c0,0 -5,72 -5,72c0,0 -27,32 -27,32c0,0 30,-1 30,-1c0,0 -8,96 -8,96c0,0 -219,0 -219,0z" id="svg_1"/>
		<path id="svg_5" d="m128,173c0,0 63,-10 63,-10c0,0 22,-44 22,-44c0,0 0,-49 0,-49c0,0 -29,-29 -29,-29c0,0 -58,9 -58,9" stroke-linecap="null" stroke-linejoin="null" stroke-dasharray="null" stroke-width="0" stroke="#000000" fill="#000000"/>
		<path stroke="#aaffff" id="svg_53" d="m73.00002,67.12857c0,0 55.5,-15.06429 55.5,-15.06429c0,0 0.75,-7.13571 0.75,-7.13571c0,0 54.75,-7.92857 54.75,-7.92857c0,0 27.75,30.12857 27.75,30.12857c0,0 1.5,51.53572 1.5,51.53572c0,0 -22.5,48.36429 -22.5,48.36429c0,0 -57,8.72143 -57,8.72143c0,0 -3,-7.13571 -3,-7.13571c0,0 -57.75,6.34286 -57.75,6.34286c0,0 3.75,-53.12143 3.75,-53.12143c0,0 53.25,2.37857 53.25,2.37857c0,0 -1.5,-41.22858 -1.5,-41.22858c0,0 -54,14.27143 -54,14.27143c0,0 -1.5,-30.12857 -1.5,-30.12857l0,-0.00001z" stroke-linecap="null" stroke-linejoin="null" stroke-dasharray="null" stroke-width="5" fill="#ffffaa"/>
		<path stroke="#aad4ff" id="svg_2" d="m54,178c0,-12 1,-117 1,-117c0,0 75,-31 75,-31c0,0 -4,20 -4,20c0,0 -57,17 -57,17c0,0 3,36 3,36c0,0 54,-15 54,-15c0,0 1,32 1,32c0,0 -53,-2 -53,-2c0,0 -4,57 -4,57c0,0 59,-2 59,-2c0,0 -1,18 -1,18c0,0 -74,-1 -74,-13z" stroke-linecap="null" stroke-linejoin="null" stroke-dasharray="null" stroke-width="5" fill="#aaffaa"/>
		<path id="svg_11" d="m151,86c0,0 6,33 6,33c0,0 21,-1 21,-1c0,0 8,-22 8,-22c0,0 1,-16 1,-16c0,0 -12,1 -12,1c0,0 -4,25 -4,25c0,0 -10,-28 -10,-28c0,0 -10,8 -10,8z" stroke-linecap="square" stroke-linejoin="bevel" stroke-width="4" stroke="#aa56ff" fill="#aaaaff"/>
	</g>
</svg>